<svg width="16" height="16" viewBox="0 0 16 16" fill="none" xmlns="http://www.w3.org/2000/svg">
<g clip-path="url(#clip0_4930_439)">
<path d="M9.28486 9.23667C9.11841 9.40861 8.91768 9.54651 8.69465 9.64216C8.47162 9.73781 8.23086 9.78924 7.98673 9.79339C7.7426 9.79753 7.50011 9.75431 7.27371 9.66629C7.04732 9.57828 6.84166 9.44727 6.66901 9.2811C6.49636 9.11492 6.36025 8.91697 6.2688 8.69907C6.17736 8.48116 6.13245 8.24776 6.13676 8.01279C6.14107 7.77782 6.1945 7.54609 6.29387 7.33142C6.39325 7.11676 6.53653 6.92356 6.71516 6.76334M11.6 11.465C10.564 12.2251 9.3025 12.6462 8.00001 12.6667C3.75759 12.6667 1.33334 8.00001 1.33334 8.00001C2.08722 6.64778 3.13282 5.46637 4.40001 4.53501L11.6 11.465ZM6.72728 3.47335C7.14445 3.37936 7.57156 3.33238 8.00001 3.33335C12.2424 3.33335 14.6667 8.00001 14.6667 8.00001C14.2988 8.66244 13.86 9.2861 13.3576 9.86084L6.72728 3.47335Z" stroke="#999392" stroke-width="2" stroke-linecap="round" stroke-linejoin="round"/>
<path d="M1.33334 1.33333L14.6667 14.6667" stroke="#999392" stroke-width="2" stroke-linecap="round" stroke-linejoin="round"/>
</g>
<defs>
<clipPath id="clip0_4930_439">
<rect width="16" height="16" fill="white"/>
</clipPath>
</defs>
</svg>
