<svg width="141" height="24" viewBox="0 0 141 24" fill="none" xmlns="http://www.w3.org/2000/svg">
<g clip-path="url(#clip0_209_997)">
<path d="M11.9668 3.82792C7.72115 3.82792 4.40818 7.10899 4.40818 11.2908C4.40818 15.5046 7.72115 18.7856 11.9668 18.7856C14.1223 18.7856 16.4053 17.7892 18.0778 16.1486L20.6191 18.9801C18.3026 21.3285 14.9896 22.8399 11.7405 22.8399C5.11452 22.8384 0 17.853 0 11.3546C0 4.92161 5.17832 0 11.9015 0C15.1187 0 18.3998 1.38382 20.5872 3.6031L18.0778 6.75505C16.4691 4.9535 14.1861 3.82792 11.9668 3.82792Z" fill="#273856"/>
<path d="M40.1128 14.0251C40.1128 19.2687 36.4459 22.8065 31.0746 22.8065C25.6381 22.8065 21.9712 19.2687 21.9712 14.0251C21.9712 8.81332 25.6381 5.30743 31.0746 5.30743C36.4459 5.30743 40.1128 8.81332 40.1128 14.0251ZM26.1849 14.0889C26.1849 17.177 28.1794 19.3006 31.0746 19.3006C33.9046 19.3006 35.899 17.177 35.899 14.0889C35.899 11.0007 33.9046 8.87712 31.0746 8.87712C28.1794 8.87864 26.1849 11.0007 26.1849 14.0889Z" fill="#273856"/>
<path d="M60.4749 11.9015V22.6454H56.2612V13.1243C56.2612 10.7121 54.8136 9.23255 52.4333 9.23255C49.6034 9.26445 47.9294 11.3561 47.9294 14.1861V22.6454H43.7476V5.43654H47.9294V8.65381C49.1522 6.36921 51.3062 5.30894 54.1057 5.27704C58.0627 5.27552 60.4749 7.81683 60.4749 11.9015Z" fill="#273856"/>
<path d="M80.5794 15.5046H67.8728C68.4197 17.9487 70.285 19.4282 72.7944 19.4282C74.5641 19.4282 76.2046 18.7522 77.4259 17.4975L79.6771 19.8459C77.9727 21.7113 75.4633 22.8049 72.439 22.8049C67.0996 22.8049 63.5938 19.2672 63.5938 14.0873C63.5938 8.84369 67.1969 5.30591 72.3433 5.30591C78.392 5.30743 80.9971 9.26446 80.5794 15.5046ZM76.7834 12.7065C76.6861 10.1652 74.9818 8.5566 72.3767 8.5566C69.8992 8.5566 68.1629 10.1652 67.7771 12.7065H76.7834Z" fill="#273856"/>
<path d="M86.2407 5.43658L89.8119 11.0342L93.4788 5.43658H98.0784L92.6099 13.8322L98.4642 22.6455H93.6398L89.8119 16.6302L85.662 22.6455H80.9971L87.0124 13.8322L81.4148 5.43658H86.2407Z" fill="#273856"/>
<path d="M110.882 22.6454V20.5553C109.693 22.0667 107.762 22.8384 105.318 22.8384C101.619 22.8384 99.3027 20.5553 99.3027 17.499C99.3027 14.3152 101.651 12.3526 105.833 12.3207H110.85V11.8711C110.85 9.87661 109.532 8.68722 106.959 8.68722C105.35 8.68722 103.614 9.23407 101.844 10.2959L100.333 7.40062C102.81 6.0168 104.739 5.27704 107.891 5.27704C112.395 5.27704 114.936 7.56012 114.968 11.388L115 22.647H110.882V22.6454ZM110.849 16.662V15.1187H106.506C104.287 15.1187 103.257 15.7294 103.257 17.2423C103.257 18.6899 104.414 19.6226 106.313 19.6226C108.727 19.6211 110.624 18.3345 110.849 16.662Z" fill="#273856"/>
<g clip-path="url(#clip1_209_997)">
<path d="M129.316 16.5631C127.692 14.9685 125.466 13.983 123.008 13.983C123.005 13.983 123.002 13.983 123 13.983V11.4046H129.416V5H134.584V11.4046H141V16.5631H134.584V22.9676H131.999C131.999 22.9645 131.999 22.9614 131.999 22.9599C131.999 20.5079 131.014 18.2841 129.416 16.6648L129.316 16.5631Z" fill="#F28080"/>
<path d="M123.025 20.366V22.9676C124.463 22.9676 125.63 22.9661 125.63 22.9661C125.631 21.5304 124.465 20.366 123.025 20.366Z" fill="#F28080"/>
<path d="M129.843 22.9984C129.843 19.2402 126.791 16.1945 123.026 16.1945V18.227C125.667 18.227 127.806 20.3629 127.806 22.9984H129.843Z" fill="#F28080"/>
</g>
</g>
<defs>
<clipPath id="clip0_209_997">
<rect width="141" height="23.2636" fill="white"/>
</clipPath>
<clipPath id="clip1_209_997">
<rect width="18" height="18" fill="white" transform="translate(123 5.26361)"/>
</clipPath>
</defs>
</svg>
